<?xml version="1.0" encoding="UTF-8" standalone="no"?>
<svg
   fill="#000000"
   viewBox="0 0 24 24"
   width="24px"
   height="24px"
   version="1.1"
   id="svg58"
   sodipodi:docname="checked.svg"
   inkscape:version="1.2.1 (9c6d41e410, 2022-07-14)"
   xmlns:inkscape="http://www.inkscape.org/namespaces/inkscape"
   xmlns:sodipodi="http://sodipodi.sourceforge.net/DTD/sodipodi-0.dtd"
   xmlns="http://www.w3.org/2000/svg"
   xmlns:svg="http://www.w3.org/2000/svg">
  <defs
     id="defs62" />
  <sodipodi:namedview
     id="namedview60"
     pagecolor="#505050"
     bordercolor="#eeeeee"
     borderopacity="1"
     inkscape:showpageshadow="0"
     inkscape:pageopacity="0"
     inkscape:pagecheckerboard="0"
     inkscape:deskcolor="#505050"
     showgrid="false"
     inkscape:zoom="19.583333"
     inkscape:cx="12"
     inkscape:cy="12"
     inkscape:window-width="1366"
     inkscape:window-height="699"
     inkscape:window-x="0"
     inkscape:window-y="0"
     inkscape:window-maximized="1"
     inkscape:current-layer="svg58" />
  <path
     d="M 12 2 C 6.486 2 2 6.486 2 12 C 2 17.514 6.486 22 12 22 C 17.514 22 22 17.514 22 12 C 22 10.874 21.803984 9.7942031 21.458984 8.7832031 L 19.839844 10.402344 C 19.944844 10.918344 20 11.453 20 12 C 20 16.411 16.411 20 12 20 C 7.589 20 4 16.411 4 12 C 4 7.589 7.589 4 12 4 C 13.633 4 15.151922 4.4938906 16.419922 5.3378906 L 17.851562 3.90625 C 16.203562 2.71225 14.185 2 12 2 z M 21.292969 3.2929688 L 11 13.585938 L 7.7070312 10.292969 L 6.2929688 11.707031 L 11 16.414062 L 22.707031 4.7070312 L 21.292969 3.2929688 z"
     id="path56" />
  <path
     style="fill:#f9f9f9;stroke-width:0.0510638"
     d="M 8.6676874,14.054923 6.3314109,11.718233 7.02123,11.029834 7.7110491,10.341435 9.3324149,11.962207 c 0.8917511,0.891424 1.6441691,1.620772 1.6720401,1.620772 0.02787,0 2.354303,-2.303544 5.16985,-5.1189853 l 5.119175,-5.1189855 0.689356,0.6893559 0.689356,0.6893559 -5.834114,5.833947 -5.834114,5.833947 z"
     id="path306" />
  <path
     style="fill:#f9f9f9;stroke-width:0.0510638"
     d="M 10.621277,21.87598 C 8.9737011,21.636562 7.3795843,20.977107 6.0255319,19.974812 5.5323343,19.609738 4.3902618,18.467666 4.0251877,17.974468 1.2804899,14.266513 1.3872498,9.2348875 4.2856384,5.6993554 4.896961,4.9536477 5.8988335,4.065099 6.6893617,3.5675219 7.767214,2.8890964 9.0054664,2.4108668 10.324542,2.1635671 c 0.656855,-0.1231469 2.23711,-0.1498158 2.952054,-0.04982 1.511483,0.2114046 2.904266,0.7253468 4.122486,1.5212139 L 17.819441,3.909583 17.117468,4.6102122 16.415496,5.3108415 16.218839,5.1772097 C 15.912446,4.96901 14.929625,4.5145264 14.462504,4.3650315 13.069302,3.9191584 11.452317,3.864664 10.06415,4.2168015 7.1751243,4.9496632 4.9452508,7.1743792 4.2209964,10.046441 c -0.1899243,0.753153 -0.2570252,1.454681 -0.2210468,2.311006 0.048919,1.164336 0.2645988,2.027019 0.7750425,3.100046 1.083484,2.277639 3.1199539,3.866721 5.6600159,4.416576 0.438954,0.09502 0.678238,0.112173 1.564992,0.112173 0.886754,0 1.126038,-0.01715 1.564992,-0.112173 3.230483,-0.699313 5.609764,-3.078594 6.309077,-6.309077 0.09539,-0.44066 0.111969,-0.674791 0.110813,-1.564992 -7.51e-4,-0.578509 -0.02686,-1.161028 -0.05836,-1.302128 l -0.057,-0.255319 0.786102,-0.7887414 0.786102,-0.7887416 0.05728,0.1504437 c 0.26909,0.7067939 0.45657,1.9322793 0.45657,2.9844863 0,1.620569 -0.329606,3.014622 -1.056421,4.468085 -0.517395,1.034672 -1.120571,1.846204 -2.012119,2.707167 -1.546309,1.493266 -3.406792,2.398215 -5.559417,2.704133 -0.664433,0.09443 -2.045073,0.09269 -2.706342,-0.0034 z"
     id="path308" />
</svg>
