<?xml version="1.0" encoding="UTF-8" standalone="no"?>
<svg
   fill="#000000"
   viewBox="0 0 24 24"
   width="24px"
   height="24px"
   version="1.1"
   id="svg400"
   sodipodi:docname="delete.svg"
   inkscape:version="1.2.1 (9c6d41e410, 2022-07-14)"
   xmlns:inkscape="http://www.inkscape.org/namespaces/inkscape"
   xmlns:sodipodi="http://sodipodi.sourceforge.net/DTD/sodipodi-0.dtd"
   xmlns="http://www.w3.org/2000/svg"
   xmlns:svg="http://www.w3.org/2000/svg">
  <defs
     id="defs404" />
  <sodipodi:namedview
     id="namedview402"
     pagecolor="#505050"
     bordercolor="#eeeeee"
     borderopacity="1"
     inkscape:showpageshadow="0"
     inkscape:pageopacity="0"
     inkscape:pagecheckerboard="0"
     inkscape:deskcolor="#505050"
     showgrid="false"
     inkscape:zoom="19.583333"
     inkscape:cx="12"
     inkscape:cy="12"
     inkscape:window-width="1366"
     inkscape:window-height="699"
     inkscape:window-x="0"
     inkscape:window-y="0"
     inkscape:window-maximized="1"
     inkscape:current-layer="svg400" />
  <path
     d="M 10 2 L 9 3 L 4 3 L 4 5 L 5 5 L 5 20 C 5 20.522222 5.1913289 21.05461 5.5683594 21.431641 C 5.9453899 21.808671 6.4777778 22 7 22 L 17 22 C 17.522222 22 18.05461 21.808671 18.431641 21.431641 C 18.808671 21.05461 19 20.522222 19 20 L 19 5 L 20 5 L 20 3 L 15 3 L 14 2 L 10 2 z M 7 5 L 17 5 L 17 20 L 7 20 L 7 5 z M 9 7 L 9 18 L 11 18 L 11 7 L 9 7 z M 13 7 L 13 18 L 15 18 L 15 7 L 13 7 z"
     id="path398" />
  <path
     style="fill:#f9f9f9;stroke-width:0.0510638"
     d="M 6.397585,21.88383 C 5.6844884,21.659432 5.1799498,21.060653 5.053526,20.28872 5.024239,20.109896 5.004729,16.99611 5.0045511,12.47234 L 5.0042553,4.9531915 H 4.5191489 4.0340426 V 3.9829787 3.012766 H 6.5244128 9.014783 L 9.4978723,2.5276596 9.9809617,2.0425532 H 12 14.019038 l 0.48309,0.4851064 0.483089,0.4851064 h 2.49037 2.49037 v 0.9702127 0.9702128 h -0.485106 -0.485106 l -3.07e-4,7.5191485 c -1.53e-4,4.471172 -0.01983,7.638434 -0.04849,7.813418 -0.112285,0.685556 -0.512051,1.226914 -1.114545,1.509303 l -0.291975,0.136854 -5.46383,0.0098 c -4.4172679,0.0079 -5.5050466,-0.0032 -5.679011,-0.0579 z m 10.60667,-9.398724 V 4.9531915 H 12 6.9957447 v 7.5319145 7.531915 H 12 17.004255 Z"
     id="path406" />
  <path
     style="fill:#f9f9f9;stroke-width:0.0510638"
     d="M 9.0382979,12.510638 V 7.0468085 h 0.9702131 0.970212 v 5.4638295 5.46383 H 10.008511 9.0382979 Z"
     id="path408" />
  <path
     style="fill:#f9f9f9;stroke-width:0.0510638"
     d="M 13.021277,12.510638 V 7.0468085 h 0.970212 0.970213 v 5.4638295 5.46383 h -0.970213 -0.970212 z"
     id="path410" />
</svg>
