<?xml version="1.0" encoding="UTF-8" standalone="no"?>
<svg
   fill="#000000"
   viewBox="0 0 24 24"
   width="24px"
   height="24px"
   version="1.1"
   id="svg540"
   sodipodi:docname="undo.svg"
   inkscape:version="1.2.1 (9c6d41e410, 2022-07-14)"
   xmlns:inkscape="http://www.inkscape.org/namespaces/inkscape"
   xmlns:sodipodi="http://sodipodi.sourceforge.net/DTD/sodipodi-0.dtd"
   xmlns="http://www.w3.org/2000/svg"
   xmlns:svg="http://www.w3.org/2000/svg">
  <defs
     id="defs544" />
  <sodipodi:namedview
     id="namedview542"
     pagecolor="#505050"
     bordercolor="#eeeeee"
     borderopacity="1"
     inkscape:showpageshadow="0"
     inkscape:pageopacity="0"
     inkscape:pagecheckerboard="0"
     inkscape:deskcolor="#505050"
     showgrid="false"
     inkscape:zoom="19.583333"
     inkscape:cx="12"
     inkscape:cy="12"
     inkscape:window-width="1366"
     inkscape:window-height="699"
     inkscape:window-x="0"
     inkscape:window-y="0"
     inkscape:window-maximized="1"
     inkscape:current-layer="svg540" />
  <path
     d="M 2 2 L 4.9394531 4.9394531 C 3.1262684 6.7482143 2 9.2427079 2 12 C 2 17.514 6.486 22 12 22 C 17.514 22 22 17.514 22 12 C 22 6.486 17.514 2 12 2 L 12 4 C 16.411 4 20 7.589 20 12 C 20 16.411 16.411 20 12 20 C 7.589 20 4 16.411 4 12 C 4 9.7940092 4.9004767 7.7972757 6.3496094 6.3496094 L 9 9 L 9 2 L 2 2 z"
     id="path538" />
  <path
     style="fill:#f9f9f9;stroke-width:0.0510638"
     d="M 10.621277,21.87598 C 8.9737011,21.636562 7.3795843,20.977107 6.0255319,19.974812 5.5323343,19.609738 4.3902618,18.467666 4.0251877,17.974468 1.7511266,14.902321 1.3991834,10.918609 3.1026344,7.5319149 3.5253482,6.6915019 4.1237784,5.838707 4.7425508,5.1949467 L 4.9764562,4.9515955 3.5226066,3.4970744 2.0687571,2.0425532 H 5.5279955 8.987234 V 5.5017594 8.9609658 L 7.6606136,7.6350812 6.3339932,6.3091966 6.0648689,6.6084361 C 5.1205345,7.6584424 4.4334462,9.0144388 4.125931,10.435008 4.0309091,10.873962 4.0137581,11.113246 4.0137581,12 c 0,0.8855 0.017215,1.126314 0.1117181,1.562761 0.1534675,0.708764 0.3291753,1.221329 0.6495159,1.894732 1.083484,2.277639 3.1199539,3.866721 5.6600159,4.416576 0.438954,0.09502 0.678238,0.112173 1.564992,0.112173 0.886754,0 1.126038,-0.01715 1.564992,-0.112173 3.230483,-0.699313 5.609764,-3.078594 6.309077,-6.309077 0.09502,-0.438954 0.112173,-0.678238 0.112173,-1.564992 0,-0.8855 -0.01722,-1.126314 -0.111718,-1.562761 C 19.716645,9.7081037 19.54241,9.2072089 19.201399,8.5021277 18.388259,6.8208652 17.145145,5.5815022 15.464481,4.776487 14.486388,4.3079938 13.563402,4.0631164 12.539542,4.0004709 L 12,3.9674587 V 3.0050059 2.0425532 h 0.381223 c 0.833846,0 2.103421,0.2491154 3.040054,0.5965183 1.326463,0.4919932 2.437432,1.1926246 3.465759,2.1856759 1.140485,1.1013612 1.935847,2.3085076 2.473412,3.753976 0.796517,2.1417716 0.798499,4.6972946 0.0053,6.8286646 -0.5437,1.460943 -1.334278,2.662695 -2.478707,3.767864 -1.546309,1.493266 -3.406792,2.398215 -5.559417,2.704133 -0.664433,0.09443 -2.045073,0.09269 -2.706342,-0.0034 z"
     id="path546" />
</svg>
